<svg width="23" height="23" viewBox="0 0 23 23" fill="none" xmlns="http://www.w3.org/2000/svg">
<path d="M11.5024 5.63965C8.39697 5.63965 5.89209 8.14453 5.89209 11.25C5.89209 14.3555 8.39697 16.8603 11.5024 16.8603C14.6079 16.8603 17.1128 14.3555 17.1128 11.25C17.1128 8.14453 14.6079 5.63965 11.5024 5.63965ZM11.5024 14.8975C9.49561 14.8975 7.85498 13.2617 7.85498 11.25C7.85498 9.23828 9.49072 7.60254 11.5024 7.60254C13.5142 7.60254 15.1499 9.23828 15.1499 11.25C15.1499 13.2617 13.5093 14.8975 11.5024 14.8975ZM18.6509 5.41016C18.6509 6.1377 18.0649 6.71875 17.3423 6.71875C16.6147 6.71875 16.0337 6.13281 16.0337 5.41016C16.0337 4.6875 16.6196 4.10156 17.3423 4.10156C18.0649 4.10156 18.6509 4.6875 18.6509 5.41016ZM22.3667 6.73828C22.2837 4.98535 21.8833 3.43262 20.5991 2.15332C19.3198 0.874023 17.7671 0.473633 16.0142 0.385742C14.2075 0.283203 8.79248 0.283203 6.98584 0.385742C5.23779 0.46875 3.68506 0.869141 2.40088 2.14844C1.1167 3.42773 0.721191 4.98047 0.633301 6.7334C0.530762 8.54004 0.530762 13.9551 0.633301 15.7617C0.716309 17.5146 1.1167 19.0674 2.40088 20.3467C3.68506 21.626 5.23291 22.0264 6.98584 22.1143C8.79248 22.2168 14.2075 22.2168 16.0142 22.1143C17.7671 22.0312 19.3198 21.6309 20.5991 20.3467C21.8784 19.0674 22.2788 17.5146 22.3667 15.7617C22.4692 13.9551 22.4692 8.54492 22.3667 6.73828ZM20.0327 17.7002C19.6519 18.6572 18.9146 19.3945 17.9526 19.7803C16.5122 20.3516 13.0942 20.2197 11.5024 20.2197C9.91064 20.2197 6.48779 20.3467 5.05225 19.7803C4.09521 19.3994 3.35791 18.6621 2.97217 17.7002C2.40088 16.2598 2.53271 12.8418 2.53271 11.25C2.53271 9.6582 2.40576 6.23535 2.97217 4.7998C3.35303 3.84277 4.09033 3.10547 5.05225 2.71973C6.49268 2.14844 9.91064 2.28027 11.5024 2.28027C13.0942 2.28027 16.5171 2.15332 17.9526 2.71973C18.9097 3.10059 19.647 3.83789 20.0327 4.7998C20.604 6.24023 20.4722 9.6582 20.4722 11.25C20.4722 12.8418 20.604 16.2646 20.0327 17.7002Z" fill="white"/>
</svg>
