<svg width="23" height="23" viewBox="0 0 23 23" fill="none" xmlns="http://www.w3.org/2000/svg">
<path d="M5.45898 22.1873H0.923828V7.58276H5.45898V22.1873ZM3.18896 5.59058C1.73877 5.59058 0.5625 4.3894 0.5625 2.93921C0.5625 2.24263 0.839216 1.57458 1.33177 1.08202C1.82433 0.58946 2.49238 0.312744 3.18896 0.312744C3.88555 0.312744 4.5536 0.58946 5.04616 1.08202C5.53871 1.57458 5.81543 2.24263 5.81543 2.93921C5.81543 4.3894 4.63867 5.59058 3.18896 5.59058ZM22.4326 22.1873H17.9072V15.0779C17.9072 13.3835 17.873 11.2107 15.5493 11.2107C13.1914 11.2107 12.8301 13.0515 12.8301 14.9558V22.1873H8.29981V7.58276H12.6494V9.57495H12.7129C13.3184 8.42749 14.7974 7.21655 17.0039 7.21655C21.5938 7.21655 22.4375 10.239 22.4375 14.1648V22.1873H22.4326Z" fill="white"/>
</svg>
